<?xml version="1.0" encoding="UTF-8" standalone="no"?>
<!-- Created with Inkscape (http://www.inkscape.org/) -->

<svg
   xmlns:dc="http://purl.org/dc/elements/1.1/"
   xmlns:cc="http://creativecommons.org/ns#"
   xmlns:rdf="http://www.w3.org/1999/02/22-rdf-syntax-ns#"
   xmlns:svg="http://www.w3.org/2000/svg"
   xmlns="http://www.w3.org/2000/svg"
   xmlns:sodipodi="http://sodipodi.sourceforge.net/DTD/sodipodi-0.dtd"
   xmlns:inkscape="http://www.inkscape.org/namespaces/inkscape"
   id="svg11067"
   version="1.1"
   inkscape:version="0.48.4 r9939"
   width="225"
   height="225"
   sodipodi:docname="674009-link_connection_chains_network_relationship_tie_attach_attachment_join_bond-512.png">
  <metadata
     id="metadata11073">
    <rdf:RDF>
      <cc:Work
         rdf:about="">
        <dc:format>image/svg+xml</dc:format>
        <dc:type
           rdf:resource="http://purl.org/dc/dcmitype/StillImage" />
        <dc:title></dc:title>
      </cc:Work>
    </rdf:RDF>
  </metadata>
  <defs
     id="defs11071" />
  <sodipodi:namedview
     pagecolor="#ffffff"
     bordercolor="#666666"
     borderopacity="1"
     objecttolerance="10"
     gridtolerance="10"
     guidetolerance="10"
     inkscape:pageopacity="0"
     inkscape:pageshadow="2"
     inkscape:window-width="1668"
     inkscape:window-height="486"
     id="namedview11069"
     showgrid="false"
     fit-margin-top="0"
     fit-margin-left="0"
     fit-margin-right="0"
     fit-margin-bottom="0"
     inkscape:zoom="0.921875"
     inkscape:cx="406.99203"
     inkscape:cy="117.22102"
     inkscape:window-x="98"
     inkscape:window-y="289"
     inkscape:window-maximized="0"
     inkscape:current-layer="svg11067" />
  <path
     style="fill:#ffa633;fill-opacity:1"
     d="m 44.202653,220.72345 c -7.444446,-0.914 -15.800595,-4.28425 -21.764526,-8.77821 -19.5662678,-14.74362 -24.2134732,-41.4522 -10.788789,-62.00568 1.482218,-2.2693 9.50577,-10.57973 32.094448,-33.24196 17.169151,-17.22504 31.536256,-31.292015 33.416516,-32.718436 18.094043,-13.726646 44.130188,-11.619271 59.943078,4.851817 3.16342,3.295085 7.22569,8.757169 7.22569,9.715579 0,0.24355 -2.89318,3.31436 -6.4293,6.82402 -7.09425,7.04116 -8.76647,8.11309 -12.8483,8.23606 -3.8132,0.11486 -5.97739,-0.74781 -9.4228,-3.75611 -8.57409,-7.48628 -18.040323,-8.89684 -27.419569,-4.08579 -2.726472,1.39854 -5.128711,3.67364 -27.419791,25.96865 -26.187328,26.19193 -26.014412,25.99257 -27.763337,32.0084 -0.962357,3.31025 -0.962357,8.89002 0,12.20027 2.348345,8.07768 8.788022,14.34924 16.839334,16.39974 3.242615,0.82583 8.049743,0.81398 11.314942,-0.0279 5.600949,-1.44409 6.553804,-2.20891 22.778481,-18.28336 l 15.145172,-15.00494 3.130298,0.97826 c 5.67939,1.77487 10.73576,2.3799 18.35274,2.19603 l 6.93799,-0.16749 -23.88659,23.89775 c -23.281838,23.29273 -25.943063,25.75894 -31.323874,29.02854 -7.441593,4.52179 -18.973889,6.88667 -28.111813,5.76475 z M 113.13307,151.7353 c -6.93812,-0.80985 -14.630982,-3.76685 -20.681684,-7.94971 -3.895199,-2.69274 -9.223136,-8.1461 -11.881497,-12.16118 l -2.045296,-3.08913 6.503361,-6.42413 c 7.924561,-7.828 8.923347,-8.42602 14.075948,-8.42795 4.468558,-0.002 5.442218,0.41391 9.353098,3.99214 5.13487,4.69812 10.20379,6.53043 17.15095,6.19971 4.81288,-0.22913 7.57099,-1.1084 11.42023,-3.64076 1.52023,-1.00013 11.58446,-10.77655 26.29565,-25.543642 21.91501,-21.99831 23.94996,-24.160359 25.28886,-26.868282 1.90778,-3.858473 2.59652,-6.811874 2.5613,-10.983157 -0.12271,-14.537292 -14.15682,-25.567992 -28.29078,-22.236327 -6.12836,1.44458 -7.3275,2.387384 -23.60622,18.559979 l -14.93851,14.841124 -3.30339,-1.01921 c -5.91998,-1.826516 -10.93608,-2.433052 -18.59296,-2.248209 l -6.937978,0.167485 23.676228,-23.705076 c 13.02194,-13.037793 25.1605,-24.832698 26.9746,-26.210892 8.7599,-6.655041 20.73066,-9.989949 31.64221,-8.815142 35.6252,3.835641 53.45741,44.575759 31.9439,72.980205 -1.23846,1.635145 -15.84753,16.519881 -32.46461,33.077184 -22.64306,22.56161 -30.97788,30.60605 -33.26623,32.10722 -9.22458,6.05137 -20.09641,8.65612 -30.87718,7.39775 z"
     id="path11077"
     inkscape:connector-curvature="0" />
</svg>
