<?xml version="1.0" encoding="UTF-8" standalone="no"?>
<!-- Created with Inkscape (http://www.inkscape.org/) -->

<svg
   xmlns:dc="http://purl.org/dc/elements/1.1/"
   xmlns:cc="http://creativecommons.org/ns#"
   xmlns:rdf="http://www.w3.org/1999/02/22-rdf-syntax-ns#"
   xmlns:svg="http://www.w3.org/2000/svg"
   xmlns="http://www.w3.org/2000/svg"
   xmlns:sodipodi="http://sodipodi.sourceforge.net/DTD/sodipodi-0.dtd"
   xmlns:inkscape="http://www.inkscape.org/namespaces/inkscape"
   width="976.16998"
   height="350.75"
   id="svg2"
   version="1.1"
   inkscape:version="0.48.4 r9939"
   sodipodi:docname="oh_connect_study.svg"
   inkscape:export-filename="/home/mad/projects/open-humans/static/images/oh_connect_study.png"
   inkscape:export-xdpi="45"
   inkscape:export-ydpi="45">
  <defs
     id="defs4" />
  <sodipodi:namedview
     id="base"
     pagecolor="#ffffff"
     bordercolor="#666666"
     borderopacity="1.0"
     inkscape:pageopacity="0.0"
     inkscape:pageshadow="2"
     inkscape:zoom="0.49497475"
     inkscape:cx="620.1206"
     inkscape:cy="171.27776"
     inkscape:document-units="px"
     inkscape:current-layer="layer1"
     showgrid="true"
     inkscape:snap-bbox="true"
     fit-margin-top="0"
     fit-margin-left="15"
     fit-margin-right="15"
     fit-margin-bottom="0"
     inkscape:window-width="2495"
     inkscape:window-height="1416"
     inkscape:window-x="-2495"
     inkscape:window-y="24"
     inkscape:window-maximized="1"
     borderlayer="true"
     inkscape:bbox-paths="true">
    <inkscape:grid
       type="xygrid"
       id="grid2985"
       empspacing="5"
       visible="true"
       enabled="true"
       snapvisiblegridlinesonly="true"
       originx="659.81594px"
       originy="20.808575px" />
  </sodipodi:namedview>
  <metadata
     id="metadata7">
    <rdf:RDF>
      <cc:Work
         rdf:about="">
        <dc:format>image/svg+xml</dc:format>
        <dc:type
           rdf:resource="http://purl.org/dc/dcmitype/StillImage" />
        <dc:title></dc:title>
      </cc:Work>
    </rdf:RDF>
  </metadata>
  <g
     inkscape:label="Layer 1"
     inkscape:groupmode="layer"
     id="layer1"
     transform="translate(659.81593,-722.42081)">
    <path
       style="fill:none;stroke:#b4b4b4;stroke-width:5.62192106;stroke-linecap:round;stroke-linejoin:round;stroke-miterlimit:4;stroke-opacity:1;stroke-dasharray:none"
       d="m -417.18904,874.6196 301.69854,0 0,-23.44643 34.679543,39.18904 -34.679543,39.18904 0,-23.44643 -301.69854,0 z"
       id="path4524"
       inkscape:connector-curvature="0"
       sodipodi:nodetypes="cccccccc" />
    <path
       style="opacity:0.98999999;fill:#ffffff;fill-opacity:1;stroke:none"
       d="m 147.65625,29 c -34.48378,8.193193 -64.696846,26.018606 -87,50.125 l 0,199.75 c 22.303154,24.10639 52.51622,41.93181 87,50.125 l 85.96875,0 c 34.48865,-8.1936 64.72668,-26.01419 87.03125,-50.125 l 0,-199.75 C 298.35168,55.014189 268.11365,37.193597 233.625,29 l -85.96875,0 z"
       transform="translate(-60.654106,718.36216)"
       id="rect4047-9"
       inkscape:connector-curvature="0" />
    <path
       style="opacity:0.98999999;fill:#332799;fill-opacity:1;stroke:none"
       d="m 175.65625,109 c -8.31,0 -15,6.69 -15,15 l 0,40 c 0,2.77 -2.23,5 -5,5 -2.77,0 -5,-2.23 -5,-5 l 0,-5 c 0,-8.31 -6.69,-15 -15,-15 l -30,0 c -8.31,0 -15,6.69 -15,15 l 0,5 c 0,2.77 -2.23,5 -5,5 l -25,0 0,109.875 c 22.303154,24.10639 52.51622,41.93181 87,50.125 l 85.96875,0 c 34.48865,-8.1936 64.72668,-26.01419 87.03125,-50.125 l 0,-109.875 -20,0 -5,0 c -2.77,0 -5,-2.23 -5,-5 l 0,-5 c 0,-8.31 -6.69,-15 -15,-15 l -30,0 c -8.31,0 -15,6.69 -15,15 l 0,5 c 0,2.77 -2.23,5 -5,5 -2.77,0 -5,-2.23 -5,-5 l 0,-40 c 0,-8.31 -6.69,-15 -15,-15 l -30,0 z"
       transform="translate(-60.654106,718.36216)"
       id="rect4485-4"
       inkscape:connector-curvature="0" />
    <path
       sodipodi:type="arc"
       style="opacity:0.98999999;fill:#332799;fill-opacity:1;stroke:none"
       id="path2987-8-2-3"
       sodipodi:cx="30"
       sodipodi:cy="1032.3622"
       sodipodi:rx="20"
       sodipodi:ry="20"
       d="m 50,1032.3622 c 0,11.0457 -8.954305,20 -20,20 -11.045695,0 -20,-8.9543 -20,-20 0,-11.0457 8.954305,-20 20,-20 11.045695,0 20,8.9543 20,20 z"
       transform="matrix(1.25,0,0,1.2500001,22.5,-455.81778)" />
    <path
       sodipodi:type="arc"
       style="opacity:0.98999999;fill:#332799;fill-opacity:1;stroke:none"
       id="path2987-8-2-1"
       sodipodi:cx="30"
       sodipodi:cy="1032.3622"
       sodipodi:rx="20"
       sodipodi:ry="20"
       d="m 50,1032.3622 c 0,11.0457 -8.954305,20 -20,20 -11.045695,0 -20,-8.9543 -20,-20 0,-11.0457 8.954305,-20 20,-20 11.045695,0 20,8.9543 20,20 z"
       transform="matrix(1.25,0,0,1.2500001,92.5,-490.81778)" />
    <path
       sodipodi:type="arc"
       style="opacity:0.98999999;fill:#332799;fill-opacity:1;stroke:none"
       id="path2987-8-2-7"
       sodipodi:cx="30"
       sodipodi:cy="1032.3622"
       sodipodi:rx="20"
       sodipodi:ry="20"
       d="m 50,1032.3622 c 0,11.0457 -8.954305,20 -20,20 -11.045695,0 -20,-8.9543 -20,-20 0,-11.0457 8.954305,-20 20,-20 11.045695,0 20,8.9543 20,20 z"
       transform="matrix(1.25,0,0,1.2500001,162.5,-455.81778)" />
    <path
       style="opacity:0.98999999;fill:#ffffff;fill-opacity:1;stroke:none"
       d="m 106.375,219.9375 c -8.31,0 -15,6.69 -15,15 l 0,70 0,5.84375 c 9.06369,5.51713 18.70017,10.28077 28.84375,14.15625 l 131.3125,0 c 14.35099,-5.48464 27.74467,-12.71893 39.84375,-21.40625 l 0,-68.59375 c 0,-8.31 -6.69,-15 -15,-15 l -30,0 c -8.31,0 -15,6.69 -15,15 l 0,55 0,5 c 0,2.77 -2.23,5 -5,5 -2.77,0 -5,-2.23 -5,-5 l 0,-5 0,-19.8125 c 0,-5.6508 -4.5367,-10.1875 -10.1875,-10.1875 l -39.625,0 c -5.6508,0 -10.1875,4.5367 -10.1875,10.1875 l 0,19.8125 0,5 c 0,2.77 -2.23,5 -5,5 -2.77,0 -5,-2.23 -5,-5 l 0,-5 0,-55 c 0,-8.31 -6.69,-15 -15,-15 l -30,0 z"
       transform="translate(-61.368659,722.42529)"
       id="rect4485"
       inkscape:connector-curvature="0" />
    <path
       sodipodi:type="arc"
       style="opacity:0.98999999;fill:#ffffff;fill-opacity:1;stroke:none"
       id="path2987-8-2"
       sodipodi:cx="30"
       sodipodi:cy="1032.3622"
       sodipodi:rx="20"
       sodipodi:ry="20"
       d="m 50,1032.3622 c 0,11.0457 -8.954305,20 -20,20 -11.045695,0 -20,-8.9543 -20,-20 0,-11.0457 8.954305,-20 20,-20 11.045695,0 20,8.9543 20,20 z"
       transform="matrix(1.25,0,0,1.2500001,22.5,-378.09065)" />
    <path
       sodipodi:type="arc"
       style="opacity:0.98999999;fill:#ffffff;fill-opacity:1;stroke:none"
       id="path2987-8-2-9"
       sodipodi:cx="30"
       sodipodi:cy="1032.3622"
       sodipodi:rx="20"
       sodipodi:ry="20"
       d="m 50,1032.3622 c 0,11.0457 -8.954305,20 -20,20 -11.045695,0 -20,-8.9543 -20,-20 0,-11.0457 8.954305,-20 20,-20 11.045695,0 20,8.9543 20,20 z"
       transform="matrix(1.25,0,0,1.2500001,92.5,-338.09065)" />
    <path
       sodipodi:type="arc"
       style="opacity:0.98999999;fill:#ffffff;fill-opacity:1;stroke:none"
       id="path2987-8-2-8"
       sodipodi:cx="30"
       sodipodi:cy="1032.3622"
       sodipodi:rx="20"
       sodipodi:ry="20"
       d="m 50,1032.3622 c 0,11.0457 -8.954305,20 -20,20 -11.045695,0 -20,-8.9543 -20,-20 0,-11.0457 8.954305,-20 20,-20 11.045695,0 20,8.9543 20,20 z"
       transform="matrix(1.25,0,0,1.2500001,162.5,-378.09065)" />
    <path
       inkscape:connector-curvature="0"
       id="path3169"
       style="font-size:475.91802979px;font-style:normal;font-variant:normal;font-weight:normal;font-stretch:normal;line-height:125%;letter-spacing:0px;word-spacing:0px;fill:#ffa633;fill-opacity:1;stroke:#ffffff;stroke-width:12;stroke-miterlimit:4;stroke-opacity:1;font-family:Quando;-inkscape-font-specification:Quando"
       d="m -4.7793825,1024.6928 c -15.8613865,-13.6561 -28.2999915,-30.11546 -37.3158525,-49.37793 -8.848982,-19.40601 -13.273451,-39.89033 -13.273424,-61.45284 -2.7e-5,-21.706 2.50439,-40.82465 7.513259,-57.35602 5.008799,-16.53096 11.937687,-31.48088 20.786682,-44.84981 8.848886,-13.51218 19.3674377,-25.44337 31.5556882,-35.79361 12.1880758,-10.34966 25.4614868,-19.04648 39.8202728,-26.09051 29.051112,-14.23086 60.523287,-21.34645 94.416617,-21.34678 51.42381,3.3e-4 93.33106,14.08775 125.72187,42.26232 33.89276,29.32514 50.83932,67.92181 50.83972,115.79014 -4e-4,36.08124 -9.4337,68.49672 -28.29994,97.24646 -17.19738,26.16238 -40.90586,46.71868 -71.12553,61.66848 -29.05153,14.5187 -58.35321,21.7781 -87.90513,21.7781 -29.385364,0 -54.930419,-3.6656 -76.635232,-10.9969 -21.538122,-7.4749 -40.23777,-17.9686 -56.0990005,-31.4811 M 37.294868,799.15 c -9.850828,11.93146 -17.113638,26.37825 -21.788451,43.34044 -4.67501,16.96264 -7.0124665,35.2188 -7.0123753,54.76852 -9.12e-5,19.40633 2.1704033,37.2312 6.5114903,53.47479 4.340893,16.10005 11.26978,30.25933 20.786684,42.47793 20.703063,26.59372 51.423913,39.89052 92.162634,39.89052 41.07223,0 72.21049,-11.5719 93.41486,-34.71551 20.36895,-22.56862 30.55359,-54.69653 30.55392,-96.384 -3.3e-4,-63.96825 -22.0392,-106.8774 -66.11668,-128.72758 -15.69461,-7.61842 -34.31078,-11.42778 -55.84855,-11.42808 -21.53821,3e-4 -39.903932,3.23466 -55.097238,9.70309 -15.193622,6.469 -27.715707,15.66896 -37.566294,27.59988" />
    <path
       inkscape:connector-curvature="0"
       id="path72-9-9-5"
       d="m -320.34256,821.39816 a 3.0373372,3.0377131 0 0 0 -2.7412,3.03012 l 0,106.29464 a 3.0373372,3.0377131 0 0 0 3.02974,3.03013 l 88.10303,0 a 3.0373372,3.0377131 0 0 0 3.02975,-3.03013 l 0,-85.03571 -24.28605,-24.28905 -66.84673,0 a 3.0373372,3.0377131 0 0 0 -0.28854,0 z"
       style="fill:#00ff00;stroke:#ffa633;stroke-width:9.23153019;stroke-linecap:round;stroke-linejoin:round;stroke-miterlimit:4;stroke-opacity:1;stroke-dasharray:none" />
    <path
       style="fill:#f4f6f8;stroke:#0f2d59;stroke-width:3.03668761;stroke-linecap:round;stroke-linejoin:round"
       d="m -253.2602,821.41586 h -66.80713 a 3.0366875,3.0366875 0 0 0 -3.03669,3.03669 v 106.28406 a 3.0366875,3.0366875 0 0 0 3.03669,3.03669 h 88.06394 a 3.0366875,3.0366875 0 0 0 3.03669,-3.03669 v -85.02725"
       inkscape:connector-curvature="0"
       id="path72" />
    <text
       sodipodi:linespacing="125%"
       id="text3360"
       y="857.04333"
       x="-315.25174"
       style="font-size:36.4402504px;font-style:normal;font-weight:normal;line-height:125%;letter-spacing:0px;word-spacing:0px;fill:#000000;fill-opacity:1;stroke:none;font-family:Sans"
       xml:space="preserve"><tspan
         style="font-size:24.2935009px"
         y="857.04333"
         x="-315.25174"
         id="tspan3362"
         sodipodi:role="line">10110</tspan><tspan
         style="font-size:24.2935009px"
         id="tspan3364"
         y="887.41022"
         x="-315.25174"
         sodipodi:role="line">11011</tspan><tspan
         style="font-size:24.2935009px"
         id="tspan3366"
         y="917.7771"
         x="-315.25174"
         sodipodi:role="line">01001</tspan></text>
    <path
       style="fill:#f4f6f8;stroke:#0f2d59;stroke-width:3.03668761;stroke-linecap:round;stroke-linejoin:round"
       d="m -253.2602,821.41586 v 21.25681 a 3.0366875,3.0366875 0 0 0 3.03668,3.03669 h 21.25682 z"
       inkscape:connector-curvature="0"
       id="path76" />
    <path
       inkscape:connector-curvature="0"
       id="path72-9-9-1"
       d="m -301.8795,782.93345 a 3.0373372,3.0377131 0 0 0 -2.7412,3.03012 l 0,106.29465 a 3.0373372,3.0377131 0 0 0 3.02974,3.03012 l 88.10302,0 a 3.0373372,3.0377131 0 0 0 3.02975,-3.03012 l 0,-85.03572 -24.28604,-24.28905 -66.84673,0 a 3.0373372,3.0377131 0 0 0 -0.28854,0 z"
       style="fill:#00ff00;stroke:#ffa633;stroke-width:9.23153019;stroke-linecap:round;stroke-linejoin:round;stroke-miterlimit:4;stroke-opacity:1;stroke-dasharray:none" />
    <path
       style="fill:#f4f6f8;stroke:#0f2d59;stroke-width:3.03668761;stroke-linecap:round;stroke-linejoin:round"
       d="m -235.04006,782.95115 h -66.80713 a 3.0366875,3.0366875 0 0 0 -3.03669,3.03669 V 892.2719 a 3.0366875,3.0366875 0 0 0 3.03669,3.03669 h 88.06394 a 3.0366875,3.0366875 0 0 0 3.03669,-3.03669 v -85.02725"
       inkscape:connector-curvature="0"
       id="path72-9" />
    <text
       sodipodi:linespacing="125%"
       id="text3360-8"
       y="818.57867"
       x="-297.03159"
       style="font-size:36.4402504px;font-style:normal;font-weight:normal;line-height:125%;letter-spacing:0px;word-spacing:0px;fill:#000000;fill-opacity:1;stroke:none;font-family:Sans"
       xml:space="preserve"><tspan
         style="font-size:24.2935009px"
         y="818.57867"
         x="-297.03159"
         id="tspan3362-3"
         sodipodi:role="line">10110</tspan><tspan
         style="font-size:24.2935009px"
         id="tspan3364-8"
         y="848.94556"
         x="-297.03159"
         sodipodi:role="line">11011</tspan><tspan
         style="font-size:24.2935009px"
         id="tspan3366-3"
         y="879.31244"
         x="-297.03159"
         sodipodi:role="line">01001</tspan></text>
    <path
       style="fill:#f4f6f8;stroke:#0f2d59;stroke-width:3.03668761;stroke-linecap:round;stroke-linejoin:round"
       d="m -235.04006,782.95115 v 21.25681 a 3.0366875,3.0366875 0 0 0 3.03668,3.03669 h 21.25682 z"
       inkscape:connector-curvature="0"
       id="path76-8" />
    <path
       inkscape:connector-curvature="0"
       id="path72-9-9-8"
       d="m -286.80224,852.16993 a 3.0373372,3.0377131 0 0 0 -2.74121,3.03012 l 0,106.29465 a 3.0373372,3.0377131 0 0 0 3.02974,3.03012 l 88.10303,0 a 3.0373372,3.0377131 0 0 0 3.02974,-3.03012 l 0,-85.03573 -24.28605,-24.28904 -66.84672,0 a 3.0373372,3.0377131 0 0 0 -0.28855,0 z"
       style="fill:#00ff00;stroke:#ffa633;stroke-width:9.23153019;stroke-linecap:round;stroke-linejoin:round;stroke-miterlimit:4;stroke-opacity:1;stroke-dasharray:none" />
    <path
       style="fill:#f4f6f8;stroke:#0f2d59;stroke-width:3.03668761;stroke-linecap:round;stroke-linejoin:round"
       d="m -219.65418,852.18762 h -66.80713 a 3.0366875,3.0366875 0 0 0 -3.03669,3.03669 v 106.28406 a 3.0366875,3.0366875 0 0 0 3.03669,3.03669 h 88.06394 a 3.0366875,3.0366875 0 0 0 3.03669,-3.03669 v -85.02725"
       inkscape:connector-curvature="0"
       id="path72-0" />
    <text
       sodipodi:linespacing="125%"
       id="text3360-6"
       y="887.81512"
       x="-281.64569"
       style="font-size:36.4402504px;font-style:normal;font-weight:normal;line-height:125%;letter-spacing:0px;word-spacing:0px;fill:#000000;fill-opacity:1;stroke:none;font-family:Sans"
       xml:space="preserve"><tspan
         style="font-size:24.2935009px"
         y="887.81512"
         x="-281.64569"
         id="tspan3362-5"
         sodipodi:role="line">10110</tspan><tspan
         style="font-size:24.2935009px"
         id="tspan3364-0"
         y="918.18201"
         x="-281.64569"
         sodipodi:role="line">11011</tspan><tspan
         style="font-size:24.2935009px"
         id="tspan3366-0"
         y="948.54889"
         x="-281.64569"
         sodipodi:role="line">01001</tspan></text>
    <path
       style="fill:#f4f6f8;stroke:#0f2d59;stroke-width:3.03668761;stroke-linecap:round;stroke-linejoin:round"
       d="m -219.65418,852.18762 v 21.25681 a 3.0366875,3.0366875 0 0 0 3.03668,3.03669 h 21.25682 z"
       inkscape:connector-curvature="0"
       id="path76-5" />
    <path
       inkscape:connector-curvature="0"
       id="path72-9-9"
       d="m -245.26037,822.93675 a 3.0373372,3.0377131 0 0 0 -2.7412,3.03012 l 0,106.29465 a 3.0373372,3.0377131 0 0 0 3.02974,3.03012 l 88.10303,0 a 3.0373372,3.0377131 0 0 0 3.02975,-3.03012 l 0,-85.03573 -24.28605,-24.28904 -66.84673,0 a 3.0373372,3.0377131 0 0 0 -0.28854,0 z"
       style="fill:#00ff00;stroke:#ffa633;stroke-width:9.23153019;stroke-linecap:round;stroke-linejoin:round;stroke-miterlimit:4;stroke-opacity:1;stroke-dasharray:none" />
    <path
       style="fill:#f4f6f8;stroke:#0f2d59;stroke-width:3.03668761;stroke-linecap:round;stroke-linejoin:round"
       d="m -178.00847,822.73471 h -66.80713 a 3.0366875,3.0366875 0 0 0 -3.03669,3.03669 v 106.28406 a 3.0366875,3.0366875 0 0 0 3.03669,3.03669 h 88.06394 a 3.0366875,3.0366875 0 0 0 3.03669,-3.03669 v -85.02725"
       inkscape:connector-curvature="0"
       id="path72-8" />
    <text
       sodipodi:linespacing="125%"
       id="text3360-4"
       y="858.36224"
       x="-240"
       style="font-size:36.4402504px;font-style:normal;font-weight:normal;line-height:125%;letter-spacing:0px;word-spacing:0px;fill:#000000;fill-opacity:1;stroke:none;font-family:Sans"
       xml:space="preserve"><tspan
         style="font-size:24.2935009px"
         y="858.36224"
         x="-240"
         id="tspan3362-7"
         sodipodi:role="line">10110</tspan><tspan
         style="font-size:24.2935009px"
         id="tspan3364-7"
         y="888.72913"
         x="-240"
         sodipodi:role="line">11011</tspan><tspan
         style="font-size:24.2935009px"
         id="tspan3366-4"
         y="919.09601"
         x="-240"
         sodipodi:role="line">01001</tspan></text>
    <path
       style="fill:#f4f6f8;stroke:#0f2d59;stroke-width:3.03668761;stroke-linecap:round;stroke-linejoin:round"
       d="m -178.00847,822.73471 v 21.25681 a 3.0366875,3.0366875 0 0 0 3.03668,3.03669 h 21.25682 z"
       inkscape:connector-curvature="0"
       id="path76-9" />
    <text
       sodipodi:linespacing="125%"
       id="text4293"
       y="1018.1279"
       x="-386.64453"
       style="font-size:12px;font-style:normal;font-weight:normal;line-height:125%;letter-spacing:0px;word-spacing:0px;fill:#000000;fill-opacity:1;stroke:none;font-family:Sans"
       xml:space="preserve"><tspan
         style="font-size:32px;font-style:normal;font-variant:normal;font-weight:bold;font-stretch:normal;font-family:Open Sans;-inkscape-font-specification:Open Sans"
         y="1018.1279"
         x="-386.64453"
         id="tspan4295"
         sodipodi:role="line">Personal Raw Data</tspan></text>
    <g
       id="g4517"
       transform="translate(-1333,-6.0000181)">
      <text
         xml:space="preserve"
         style="font-size:12px;font-style:normal;font-weight:normal;line-height:125%;letter-spacing:0px;word-spacing:0px;fill:#000000;fill-opacity:1;stroke:none;font-family:Sans"
         x="706.65625"
         y="1025.0497"
         id="text4331"
         sodipodi:linespacing="125%"><tspan
           sodipodi:role="line"
           id="tspan4333"
           x="706.65625"
           y="1025.0497"
           style="font-size:32px;font-style:normal;font-variant:normal;font-weight:bold;font-stretch:normal;font-family:Open Sans;-inkscape-font-specification:Open Sans Bold">Your study</tspan></text>
      <g
         transform="translate(-7.999998,0.99999348)"
         id="g4513">
        <path
           sodipodi:type="arc"
           style="opacity:0.98999999;fill:#332799;fill-opacity:1;stroke:none"
           id="path2987-8-2-1-0"
           sodipodi:cx="30"
           sodipodi:cy="1032.3622"
           sodipodi:rx="20"
           sodipodi:ry="20"
           d="m 50,1032.3622 c 0,11.0457 -8.954305,20 -20,20 -11.045695,0 -20,-8.9543 -20,-20 0,-11.0457 8.954305,-20 20,-20 11.045695,0 20,8.9543 20,20 z"
           transform="matrix(1.25,0,0,1.2500001,765.5,-461.0906)" />
        <rect
           style="fill:#332799;fill-opacity:1;stroke:none"
           id="rect4440"
           width="60"
           height="109.99999"
           x="773"
           y="857.36224"
           ry="14.999989" />
      </g>
      <path
         sodipodi:type="arc"
         style="fill:none;stroke:#ffa633;stroke-width:11.46474743;stroke-linecap:round;stroke-linejoin:round;stroke-miterlimit:4;stroke-opacity:1;stroke-dasharray:none"
         id="path4696"
         sodipodi:cx="-463.63135"
         sodipodi:cy="144.9369"
         sodipodi:rx="115"
         sodipodi:ry="115"
         d="m -348.63135,144.9369 c 0,63.51275 -51.48725,115 -115,115 -63.51274,0 -115,-51.48725 -115,-115 0,-63.512741 51.48726,-114.999995 115,-114.999995 63.51275,0 115,51.487254 115,114.999995 z"
         transform="matrix(0.87223901,0,0,0.87223901,1197.8889,758.45108)" />
    </g>
  </g>
</svg>
