<?xml version="1.0" encoding="UTF-8" standalone="no"?>
<!-- Created with Inkscape (http://www.inkscape.org/) -->

<svg
   xmlns:dc="http://purl.org/dc/elements/1.1/"
   xmlns:cc="http://creativecommons.org/ns#"
   xmlns:rdf="http://www.w3.org/1999/02/22-rdf-syntax-ns#"
   xmlns:svg="http://www.w3.org/2000/svg"
   xmlns="http://www.w3.org/2000/svg"
   xmlns:sodipodi="http://sodipodi.sourceforge.net/DTD/sodipodi-0.dtd"
   xmlns:inkscape="http://www.inkscape.org/namespaces/inkscape"
   width="382.65411"
   height="350.74548"
   id="svg2"
   version="1.1"
   inkscape:version="0.48.4 r9939"
   sodipodi:docname="open_humans_logo_only.svg"
   inkscape:export-filename="/home/mad/Pictures/open_humans_logo_only.png"
   inkscape:export-xdpi="90.093842"
   inkscape:export-ydpi="90.093842">
  <defs
     id="defs4" />
  <sodipodi:namedview
     id="base"
     pagecolor="#ffffff"
     bordercolor="#666666"
     borderopacity="1.0"
     inkscape:pageopacity="0.0"
     inkscape:pageshadow="2"
     inkscape:zoom="1.979899"
     inkscape:cx="161.67966"
     inkscape:cy="242.82288"
     inkscape:document-units="px"
     inkscape:current-layer="layer1"
     showgrid="true"
     inkscape:snap-bbox="true"
     fit-margin-top="0"
     fit-margin-left="0"
     fit-margin-right="0"
     fit-margin-bottom="0"
     inkscape:window-width="2487"
     inkscape:window-height="1413"
     inkscape:window-x="73"
     inkscape:window-y="27"
     inkscape:window-maximized="1"
     borderlayer="true"
     inkscape:bbox-paths="true">
    <inkscape:grid
       type="xygrid"
       id="grid2985"
       empspacing="5"
       visible="true"
       enabled="true"
       snapvisiblegridlinesonly="true"
       originx="61.36866px"
       originy="20.808541px" />
  </sodipodi:namedview>
  <metadata
     id="metadata7">
    <rdf:RDF>
      <cc:Work
         rdf:about="">
        <dc:format>image/svg+xml</dc:format>
        <dc:type
           rdf:resource="http://purl.org/dc/dcmitype/StillImage" />
        <dc:title></dc:title>
      </cc:Work>
    </rdf:RDF>
  </metadata>
  <g
     inkscape:label="Layer 1"
     inkscape:groupmode="layer"
     id="layer1"
     transform="translate(61.368659,-722.42529)">
    <path
       style="opacity:0.98999999000000005;fill:#ffffff;fill-opacity:1;stroke:none"
       d="m 147.65625,29 c -34.48378,8.193193 -64.696846,26.018606 -87,50.125 l 0,199.75 c 22.303154,24.10639 52.51622,41.93181 87,50.125 l 85.96875,0 c 34.48865,-8.1936 64.72668,-26.01419 87.03125,-50.125 l 0,-199.75 C 298.35168,55.014189 268.11365,37.193597 233.625,29 l -85.96875,0 z"
       transform="translate(-60.654106,718.36216)"
       id="rect4047-9"
       inkscape:connector-curvature="0" />
    <path
       style="opacity:0.98999999000000005;fill:#332799;fill-opacity:1;stroke:none"
       d="m 175.65625,109 c -8.31,0 -15,6.69 -15,15 l 0,40 c 0,2.77 -2.23,5 -5,5 -2.77,0 -5,-2.23 -5,-5 l 0,-5 c 0,-8.31 -6.69,-15 -15,-15 l -30,0 c -8.31,0 -15,6.69 -15,15 l 0,5 c 0,2.77 -2.23,5 -5,5 l -25,0 0,109.875 c 22.303154,24.10639 52.51622,41.93181 87,50.125 l 85.96875,0 c 34.48865,-8.1936 64.72668,-26.01419 87.03125,-50.125 l 0,-109.875 -20,0 -5,0 c -2.77,0 -5,-2.23 -5,-5 l 0,-5 c 0,-8.31 -6.69,-15 -15,-15 l -30,0 c -8.31,0 -15,6.69 -15,15 l 0,5 c 0,2.77 -2.23,5 -5,5 -2.77,0 -5,-2.23 -5,-5 l 0,-40 c 0,-8.31 -6.69,-15 -15,-15 l -30,0 z"
       transform="translate(-60.654106,718.36216)"
       id="rect4485-4"
       inkscape:connector-curvature="0" />
    <path
       sodipodi:type="arc"
       style="opacity:0.98999999000000005;fill:#332799;fill-opacity:1;stroke:none"
       id="path2987-8-2-3"
       sodipodi:cx="30"
       sodipodi:cy="1032.3622"
       sodipodi:rx="20"
       sodipodi:ry="20"
       d="m 50,1032.3622 c 0,11.0457 -8.954305,20 -20,20 -11.045695,0 -20,-8.9543 -20,-20 0,-11.0457 8.954305,-20 20,-20 11.045695,0 20,8.9543 20,20 z"
       transform="matrix(1.25,0,0,1.2500001,22.5,-455.81778)" />
    <path
       sodipodi:type="arc"
       style="opacity:0.98999999000000005;fill:#332799;fill-opacity:1;stroke:none"
       id="path2987-8-2-1"
       sodipodi:cx="30"
       sodipodi:cy="1032.3622"
       sodipodi:rx="20"
       sodipodi:ry="20"
       d="m 50,1032.3622 c 0,11.0457 -8.954305,20 -20,20 -11.045695,0 -20,-8.9543 -20,-20 0,-11.0457 8.954305,-20 20,-20 11.045695,0 20,8.9543 20,20 z"
       transform="matrix(1.25,0,0,1.2500001,92.5,-490.81778)" />
    <path
       sodipodi:type="arc"
       style="opacity:0.98999999000000005;fill:#332799;fill-opacity:1;stroke:none"
       id="path2987-8-2-7"
       sodipodi:cx="30"
       sodipodi:cy="1032.3622"
       sodipodi:rx="20"
       sodipodi:ry="20"
       d="m 50,1032.3622 c 0,11.0457 -8.954305,20 -20,20 -11.045695,0 -20,-8.9543 -20,-20 0,-11.0457 8.954305,-20 20,-20 11.045695,0 20,8.9543 20,20 z"
       transform="matrix(1.25,0,0,1.2500001,162.5,-455.81778)" />
    <path
       style="opacity:0.98999999;fill:#ffffff;fill-opacity:1;stroke:none"
       d="M 106.375 219.9375 C 98.065 219.9375 91.375 226.6275 91.375 234.9375 L 91.375 304.9375 L 91.375 310.78125 C 100.43869 316.29838 110.07517 321.06202 120.21875 324.9375 L 251.53125 324.9375 C 265.88224 319.45286 279.27592 312.21857 291.375 303.53125 L 291.375 234.9375 C 291.375 226.6275 284.685 219.9375 276.375 219.9375 L 246.375 219.9375 C 238.065 219.9375 231.375 226.6275 231.375 234.9375 L 231.375 289.9375 L 231.375 294.9375 C 231.375 297.7075 229.145 299.9375 226.375 299.9375 C 223.605 299.9375 221.375 297.7075 221.375 294.9375 L 221.375 289.9375 L 221.375 270.125 C 221.375 264.4742 216.8383 259.9375 211.1875 259.9375 L 171.5625 259.9375 C 165.9117 259.9375 161.375 264.4742 161.375 270.125 L 161.375 289.9375 L 161.375 294.9375 C 161.375 297.7075 159.145 299.9375 156.375 299.9375 C 153.605 299.9375 151.375 297.7075 151.375 294.9375 L 151.375 289.9375 L 151.375 234.9375 C 151.375 226.6275 144.685 219.9375 136.375 219.9375 L 106.375 219.9375 z "
       transform="translate(-61.368659,722.42529)"
       id="rect4485" />
    <path
       sodipodi:type="arc"
       style="opacity:0.98999999;fill:#ffffff;fill-opacity:1;stroke:none"
       id="path2987-8-2"
       sodipodi:cx="30"
       sodipodi:cy="1032.3622"
       sodipodi:rx="20"
       sodipodi:ry="20"
       d="m 50,1032.3622 c 0,11.0457 -8.954305,20 -20,20 -11.045695,0 -20,-8.9543 -20,-20 0,-11.0457 8.954305,-20 20,-20 11.045695,0 20,8.9543 20,20 z"
       transform="matrix(1.25,0,0,1.2500001,22.5,-378.09065)" />
    <path
       sodipodi:type="arc"
       style="opacity:0.98999999;fill:#ffffff;fill-opacity:1;stroke:none"
       id="path2987-8-2-9"
       sodipodi:cx="30"
       sodipodi:cy="1032.3622"
       sodipodi:rx="20"
       sodipodi:ry="20"
       d="m 50,1032.3622 c 0,11.0457 -8.954305,20 -20,20 -11.045695,0 -20,-8.9543 -20,-20 0,-11.0457 8.954305,-20 20,-20 11.045695,0 20,8.9543 20,20 z"
       transform="matrix(1.25,0,0,1.2500001,92.5,-338.09065)" />
    <path
       sodipodi:type="arc"
       style="opacity:0.98999999;fill:#ffffff;fill-opacity:1;stroke:none"
       id="path2987-8-2-8"
       sodipodi:cx="30"
       sodipodi:cy="1032.3622"
       sodipodi:rx="20"
       sodipodi:ry="20"
       d="m 50,1032.3622 c 0,11.0457 -8.954305,20 -20,20 -11.045695,0 -20,-8.9543 -20,-20 0,-11.0457 8.954305,-20 20,-20 11.045695,0 20,8.9543 20,20 z"
       transform="matrix(1.25,0,0,1.2500001,162.5,-378.09065)" />
    <g
       transform="scale(1.0777174,0.92788704)"
       style="font-size:47.59181595000000442px;font-style:normal;font-variant:normal;font-weight:normal;font-stretch:normal;line-height:125%;letter-spacing:0px;word-spacing:0px;fill:#ffa633;fill-opacity:1;stroke:#ffffff;stroke-width:12;stroke-miterlimit:4;stroke-opacity:1;font-family:Quando;-inkscape-font-specification:Quando"
       id="text3043-4">
      <path
         d="m -4.434727,1104.3293 c -14.717575,-14.7175 -26.259195,-32.456 -34.624896,-53.2155 -8.210855,-20.9142 -12.316263,-42.9905 -12.316238,-66.2288 -2.5e-5,-23.39293 2.323791,-43.99743 6.971456,-61.81358 4.6476,-17.8157 11.076825,-33.92749 19.287693,-48.33542 8.210766,-14.56231 17.9707939,-27.42076 29.2801135,-38.57539 11.3091575,-11.15401 23.6253835,-20.52673 36.9487145,-28.1182 26.95615,-15.33685 56.158773,-23.00544 87.607954,-23.0058 47.71549,3.6e-4 86.60068,15.18262 116.65569,45.54684 31.44866,31.60421 47.17315,73.20052 47.17352,124.78905 -3.7e-4,38.88538 -8.75341,73.8201 -26.25915,104.8042 -15.95722,28.1957 -37.95601,50.3495 -65.99645,66.4612 -26.95654,15.6471 -54.14519,23.4706 -81.56603,23.4706 -27.266302,0 -50.969227,-3.9505 -71.108842,-11.8515 -19.984944,-8.0559 -37.336105,-19.3651 -52.053535,-33.9277 M 34.605424,861.25785 c -9.140455,12.85874 -15.879522,28.4283 -20.217221,46.70875 -4.337881,18.28093 -6.5067765,37.95591 -6.5066919,59.02499 -8.46e-5,20.91453 2.0138894,40.12471 6.0419279,57.63071 4.027858,17.3513 10.457082,32.611 19.287694,45.7792 19.210104,28.6605 47.715582,42.9907 85.516517,42.9907 38.11039,0 67.00317,-12.4712 86.67843,-37.4135 18.90009,-24.3226 28.35028,-58.9474 28.35059,-103.87471 -3.1e-4,-68.9397 -20.44989,-115.18364 -61.34881,-138.73196 -14.56283,-8.2105 -31.83653,-12.31591 -51.82115,-12.31624 -19.98502,3.3e-4 -37.026337,3.48605 -51.124009,10.45719 -14.097964,6.97176 -25.717045,16.88671 -34.857277,29.74487"
         style="font-size:475.91802978999999141px;fill:#ffa633;stroke:#ffffff;fill-opacity:1"
         id="path3169" />
    </g>
  </g>
</svg>
